<svg width="55.2" height="69.8" viewBox="0 0 55.2 69.8" xmlns="http://www.w3.org/2000/svg">
  <defs>
    <linearGradient id="grad1" x1="100%" y1="0%" x2="0%" y2="0%">
      <stop offset="0%" style="stop-color:red;stop-opacity:1" />
      <stop offset="60%" style="stop-color:yellow;stop-opacity:1" />
    </linearGradient>
  </defs>
<g id="svgGroup" stroke-linecap="round" fill-rule="evenodd" font-size="9pt" fill="url(#grad1)" style="fill:url(#grad1)"><path d="M 15.2 44.2 L 15.2 69.8 L 0 69.8 L 0 0 L 33.1 0 Q 37.9 0 41.8 1.6 Q 45.7 3.2 48.45 6.15 A 20.181 20.181 0 0 1 52.253 12.07 A 23.566 23.566 0 0 1 52.7 13.2 A 24.605 24.605 0 0 1 54.039 19.116 A 30.599 30.599 0 0 1 54.2 22.3 A 27.003 27.003 0 0 1 53.437 28.853 A 21.615 21.615 0 0 1 51.05 34.7 A 17.492 17.492 0 0 1 43.444 41.568 A 22.646 22.646 0 0 1 41.5 42.4 L 55.2 69.8 L 38.3 69.8 L 26.1 44.2 L 15.2 44.2 Z M 15.2 31.4 L 31.2 31.4 A 10.673 10.673 0 0 0 33.366 31.193 Q 34.705 30.916 35.735 30.266 A 6.061 6.061 0 0 0 36.55 29.65 A 5.597 5.597 0 0 0 38.202 26.905 Q 38.5 25.829 38.5 24.5 L 38.5 20.1 Q 38.5 17.495 37.355 15.858 A 5.296 5.296 0 0 0 36.55 14.95 A 6.514 6.514 0 0 0 33.854 13.523 Q 32.661 13.2 31.2 13.2 L 15.2 13.2 L 15.2 31.4 Z" vector-effect="non-scaling-stroke"/>
</g>
</svg>